<?xml version="1.0" encoding="UTF-8"?>
<svg id="Layer_1" data-name="Layer 1" xmlns="http://www.w3.org/2000/svg" viewBox="0 0 5638.75 1620.61">
  <defs>
    <style>
      .cls-1 {
        fill: #fff;
      }

      .cls-2 {
        fill: #bca273;
      }
    </style>
  </defs>
  <g>
    <path class="cls-1" d="M0,256.29H135.45V1342.18H0V256.29ZM67.72,834.23H352.13c77.76,0,138.01-20.19,180.63-60.57,42.62-40.38,63.98-96.22,63.98-167.44v-1.52c0-71.73-21.36-127.65-63.98-167.81-42.62-40.11-102.87-60.19-180.63-60.19H67.72v-120.41H386.79c68.2,0,128.4,14.55,180.58,43.66,52.18,29.08,93.2,69.73,123.06,121.91,29.86,52.18,44.76,112.61,44.76,181.35v1.5c0,68.74-14.9,129.44-44.76,182.13-29.86,52.66-70.87,93.81-123.06,123.4-52.18,29.62-112.37,44.41-180.58,44.41H67.72v-120.41Z"/>
    <path class="cls-1" d="M869.88,559.57h130.96v132.43h2.99c13.03-45.16,35.62-81.02,67.72-107.62,32.1-26.57,70.23-39.87,114.4-39.87,11.54,0,21.95,.64,31.19,1.87,9.29,1.28,16.45,2.4,21.47,3.39v127.19c-5.02-2-13.94-3.77-26.7-5.29-12.82-1.5-27.24-2.24-43.26-2.24-33.65,0-63.13,7.53-88.45,22.57-25.32,15.06-44.92,36.75-58.7,65.11-13.78,28.33-20.67,62.33-20.67,101.96v483.12h-130.96V559.57Z"/>
    <path class="cls-1" d="M1441.42,1307.57c-54.42-33.11-96.83-80.14-127.17-141.11-30.34-60.94-45.5-132.83-45.5-215.59v-1.52c0-83.27,15.17-155.13,45.5-215.59,30.34-60.46,72.74-107.11,127.17-139.96,54.42-32.85,117.5-49.3,189.28-49.3s135.55,16.45,189.98,49.3c54.42,32.85,96.83,79.5,127.17,139.96,30.39,60.46,45.56,132.32,45.56,215.59v1.52c0,83.27-15.17,155.26-45.56,215.96-30.34,60.73-72.58,107.62-126.79,140.73-54.16,33.11-117.39,49.67-189.6,49.67s-135.61-16.56-190.03-49.67Zm310.79-100.46c33.86-22.83,60.19-55.95,79.05-99.34,18.8-43.4,28.2-95.68,28.2-156.89v-1.52c0-61.18-9.4-113.36-28.2-156.52-18.85-43.13-45.45-76-79.79-98.57-34.34-22.59-74.61-33.86-120.76-33.86s-84.92,11.4-119.32,34.24c-34.34,22.83-61.05,55.68-80.11,98.57-19.07,42.89-28.57,94.96-28.57,156.14v1.52c0,61.21,9.51,113.5,28.57,156.89,19.07,43.4,45.77,76.51,80.11,99.34,34.4,22.83,74.67,34.24,120.81,34.24s86.15-11.4,120.01-34.24Z"/>
    <path class="cls-1" d="M2288.01,1593.15c-47.96-18.32-86.58-43.15-115.9-74.51-29.38-31.35-48.28-66.36-56.83-104.98l-1.5-6.78h131.65l3.04,6.78c12.55,28.09,36.75,50.29,72.58,66.6,35.89,16.29,80.43,24.46,133.58,24.46,68.74,0,121.93-17.68,159.53-53.06,37.65-35.36,56.45-83.4,56.45-144.1v-100.09h-2.99c-15.6,29.11-35.62,54.18-60.19,75.25-24.62,21.07-52.82,37.49-84.71,49.3-31.83,11.78-66.55,17.68-104.2,17.68-65.75,0-123.54-16.69-173.47-50.04-49.88-33.35-88.77-80.27-116.59-140.73-27.88-60.43-41.77-131.31-41.77-212.57v-.75c0-81.29,14.15-151.9,42.51-211.85,28.31-59.95,67.56-106.47,117.77-139.59,50.15-33.11,108.37-49.67,174.54-49.67,37.12,0,71.25,6.28,102.39,18.8,31.08,12.55,58.8,29.86,83.16,51.94,24.3,22.08,44.49,47.67,60.57,76.75h2.99v-132.43h130.96v760.79c0,60.7-14.05,113.5-42.14,158.41-28.09,44.89-67.99,79.77-119.69,104.58-51.65,24.84-112.85,37.25-183.57,37.25-64.25,0-120.33-9.16-168.19-27.45Zm276.13-395.07c33.38-23.82,59.5-57.31,78.3-100.46,18.8-43.15,28.2-93.57,28.2-151.26v-.75c0-57.71-9.4-107.86-28.2-150.51-18.8-42.65-45.02-75.76-78.67-99.34-33.59-23.58-72.48-35.36-116.65-35.36s-86.26,11.64-120.39,34.98c-34.13,23.31-60.3,56.32-78.62,98.94-18.32,42.65-27.45,93.07-27.45,151.28v.75c0,59.2,9.13,110.24,27.45,153.13,18.32,42.89,44.49,76,78.62,99.34,34.13,23.31,74.24,34.98,120.39,34.98s83.69-11.91,117.02-35.73Z"/>
    <path class="cls-1" d="M2970.9,559.57h130.96v114.38h2.99c17.57-38.64,45.13-69.86,82.78-93.71,37.6-23.82,81.5-35.73,131.71-35.73,35.57,0,67.83,5.9,96.67,17.68,28.84,11.8,53.84,28.87,74.88,51.17,21.1,22.35,37.12,49.56,48.18,81.66h2.99c14.53-31.62,33.97-58.56,58.32-80.89,24.35-22.33,52.45-39.52,84.28-51.57,31.89-12.04,66.12-18.05,102.71-18.05,51.7,0,96.56,10.66,134.7,31.99,38.13,21.31,67.72,51.17,88.82,89.54,21.1,38.37,31.62,83.67,31.62,135.82v540.32h-130.96v-510.22c0-36.1-6.41-66.95-19.17-92.56-12.82-25.58-31.24-45.13-55.33-58.7-24.09-13.54-53.41-20.3-88.02-20.3s-65.21,7.88-91.81,23.69c-26.6,15.81-47.43,37.63-62.49,65.48-15.01,27.83-22.54,59.58-22.54,95.2v497.4h-130.96V817.67c0-31.59-6.62-59.18-19.92-82.78-13.3-23.55-31.89-41.87-55.71-54.93-23.82-13.03-52.02-19.55-84.65-19.55-34.61,0-65.37,8.39-92.18,25.21-26.86,16.8-48.02,39.5-63.56,68.1-15.6,28.6-23.34,61.21-23.34,97.82v490.65h-130.96V559.57Z"/>
    <path class="cls-1" d="M4224.59,403.03c-16.08-16.05-24.09-35.36-24.09-57.95s8.01-42.51,24.09-58.3c16.08-15.81,35.36-23.71,57.95-23.71s42.51,7.9,58.32,23.71c15.81,15.78,23.71,35.25,23.71,58.3s-7.9,41.9-23.71,57.95c-15.81,16.08-35.25,24.09-58.32,24.09s-41.87-8.01-57.95-24.09Zm-7.53,156.54h130.96v782.61h-130.96V559.57Z"/>
  </g>
  <path class="cls-2" d="M4852.76,798.38L4293.69,0h230.12l441.67,645.49h4.61L5408.69,0h230.06l-562.08,790.66,557.47,815.37h-228.58l-441.61-659.41h-4.67l-443.21,659.41h-228.52l565.22-807.66Z"/>
</svg>